<mxfile host="app.diagrams.net" modified="2024-03-29T13:47:18.158Z" agent="Mozilla/5.0 (Windows NT 10.0; Win64; x64) AppleWebKit/537.36 (KHTML, like Gecko) Chrome/123.0.0.0 Safari/537.36" version="24.2.1" etag="59q69jIRKpr8-zL0vRML" type="github">
  <diagram name="Page-1" id="KTaFMI3WlbLTyUJSui5v">
    <mxGraphModel>
      <root>
        <mxCell id="0" />
        <mxCell id="1" parent="0" />
      </root>
    </mxGraphModel>
  </diagram>
</mxfile>
